<mxfile host="app.diagrams.net" agent="Mozilla/5.0 (X11; Linux x86_64; rv:109.0) Gecko/20100101 Firefox/115.0" version="24.7.16">
  <diagram name="Page-1" id="wQRTIUGfQ5Wtr81HLaks">
    <mxGraphModel dx="714" dy="1209" grid="0" gridSize="10" guides="1" tooltips="1" connect="1" arrows="1" fold="1" page="0" pageScale="1" pageWidth="850" pageHeight="1100" math="0" shadow="0">
      <root>
        <mxCell id="0" />
        <mxCell id="1" parent="0" />
        <mxCell id="6RDlK6air4TP1Rz4hNY2-1" value="" style="shape=parallelogram;perimeter=parallelogramPerimeter;whiteSpace=wrap;html=1;fixedSize=1;" vertex="1" parent="1">
          <mxGeometry x="114" y="-138" width="120" height="60" as="geometry" />
        </mxCell>
        <mxCell id="6RDlK6air4TP1Rz4hNY2-3" value="Ask user to enter a op" style="text;strokeColor=none;fillColor=none;html=1;align=center;verticalAlign=middle;whiteSpace=wrap;rounded=0;fontSize=16;" vertex="1" parent="1">
          <mxGeometry x="135.5" y="-127" width="77" height="45" as="geometry" />
        </mxCell>
        <mxCell id="6RDlK6air4TP1Rz4hNY2-5" value="" style="endArrow=classic;html=1;rounded=0;fontSize=12;startSize=8;endSize=8;curved=1;" edge="1" parent="1">
          <mxGeometry width="50" height="50" relative="1" as="geometry">
            <mxPoint x="172.5" y="-78" as="sourcePoint" />
            <mxPoint x="175.5" y="-27" as="targetPoint" />
          </mxGeometry>
        </mxCell>
        <mxCell id="6RDlK6air4TP1Rz4hNY2-6" value="" style="shape=parallelogram;perimeter=parallelogramPerimeter;whiteSpace=wrap;html=1;fixedSize=1;" vertex="1" parent="1">
          <mxGeometry x="109" y="-27" width="141" height="68" as="geometry" />
        </mxCell>
        <mxCell id="6RDlK6air4TP1Rz4hNY2-7" value="Scan input and define it as variable op" style="text;strokeColor=none;fillColor=none;html=1;align=center;verticalAlign=middle;whiteSpace=wrap;rounded=0;fontSize=16;" vertex="1" parent="1">
          <mxGeometry x="114" y="-30.5" width="131" height="75" as="geometry" />
        </mxCell>
        <mxCell id="6RDlK6air4TP1Rz4hNY2-9" value="" style="ellipse;whiteSpace=wrap;html=1;" vertex="1" parent="1">
          <mxGeometry x="130" y="-235" width="103" height="49" as="geometry" />
        </mxCell>
        <mxCell id="6RDlK6air4TP1Rz4hNY2-10" value="Start" style="text;strokeColor=none;fillColor=none;html=1;align=center;verticalAlign=middle;whiteSpace=wrap;rounded=0;fontSize=16;" vertex="1" parent="1">
          <mxGeometry x="152.5" y="-225.5" width="60" height="30" as="geometry" />
        </mxCell>
        <mxCell id="6RDlK6air4TP1Rz4hNY2-11" value="" style="rhombus;whiteSpace=wrap;html=1;" vertex="1" parent="1">
          <mxGeometry x="337.5" y="-30.5" width="98" height="94" as="geometry" />
        </mxCell>
        <mxCell id="6RDlK6air4TP1Rz4hNY2-12" value="&amp;nbsp;Is op= + " style="text;strokeColor=none;fillColor=none;html=1;align=center;verticalAlign=middle;whiteSpace=wrap;rounded=0;fontSize=16;" vertex="1" parent="1">
          <mxGeometry x="360" y="6" width="53" height="20" as="geometry" />
        </mxCell>
        <mxCell id="6RDlK6air4TP1Rz4hNY2-16" value="" style="endArrow=classic;html=1;rounded=0;fontSize=12;startSize=8;endSize=8;curved=1;entryX=0;entryY=0.5;entryDx=0;entryDy=0;" edge="1" parent="1" target="6RDlK6air4TP1Rz4hNY2-11">
          <mxGeometry width="50" height="50" relative="1" as="geometry">
            <mxPoint x="237" y="15" as="sourcePoint" />
            <mxPoint x="287" y="-35" as="targetPoint" />
          </mxGeometry>
        </mxCell>
        <mxCell id="6RDlK6air4TP1Rz4hNY2-17" value="" style="endArrow=classic;html=1;rounded=0;fontSize=12;startSize=8;endSize=8;curved=1;exitX=0.583;exitY=1;exitDx=0;exitDy=0;exitPerimeter=0;entryX=0.567;entryY=0;entryDx=0;entryDy=0;entryPerimeter=0;" edge="1" parent="1" source="6RDlK6air4TP1Rz4hNY2-9" target="6RDlK6air4TP1Rz4hNY2-1">
          <mxGeometry width="50" height="50" relative="1" as="geometry">
            <mxPoint x="190" y="-155" as="sourcePoint" />
            <mxPoint x="240" y="-205" as="targetPoint" />
          </mxGeometry>
        </mxCell>
        <mxCell id="6RDlK6air4TP1Rz4hNY2-18" value="" style="endArrow=classic;html=1;rounded=0;fontSize=12;startSize=8;endSize=8;curved=1;" edge="1" parent="1">
          <mxGeometry width="50" height="50" relative="1" as="geometry">
            <mxPoint x="435.5" y="15.5" as="sourcePoint" />
            <mxPoint x="511.5" y="15.5" as="targetPoint" />
          </mxGeometry>
        </mxCell>
        <mxCell id="6RDlK6air4TP1Rz4hNY2-19" value="" style="shape=parallelogram;perimeter=parallelogramPerimeter;whiteSpace=wrap;html=1;fixedSize=1;" vertex="1" parent="1">
          <mxGeometry x="494" y="-4" width="120" height="60" as="geometry" />
        </mxCell>
        <mxCell id="6RDlK6air4TP1Rz4hNY2-20" value="Output &quot;Addition&quot;" style="text;strokeColor=none;fillColor=none;html=1;align=center;verticalAlign=middle;whiteSpace=wrap;rounded=0;fontSize=16;" vertex="1" parent="1">
          <mxGeometry x="520" y="11" width="60" height="30" as="geometry" />
        </mxCell>
        <mxCell id="6RDlK6air4TP1Rz4hNY2-25" value="" style="rhombus;whiteSpace=wrap;html=1;" vertex="1" parent="1">
          <mxGeometry x="337.5" y="80" width="98" height="94" as="geometry" />
        </mxCell>
        <mxCell id="6RDlK6air4TP1Rz4hNY2-26" value="&amp;nbsp;is op=-" style="text;strokeColor=none;fillColor=none;html=1;align=center;verticalAlign=middle;whiteSpace=wrap;rounded=0;fontSize=16;" vertex="1" parent="1">
          <mxGeometry x="358" y="115.5" width="53" height="20" as="geometry" />
        </mxCell>
        <mxCell id="6RDlK6air4TP1Rz4hNY2-27" value="" style="endArrow=classic;html=1;rounded=0;fontSize=12;startSize=8;endSize=8;curved=1;" edge="1" parent="1">
          <mxGeometry width="50" height="50" relative="1" as="geometry">
            <mxPoint x="435.5" y="126" as="sourcePoint" />
            <mxPoint x="511.5" y="126" as="targetPoint" />
          </mxGeometry>
        </mxCell>
        <mxCell id="6RDlK6air4TP1Rz4hNY2-28" value="" style="shape=parallelogram;perimeter=parallelogramPerimeter;whiteSpace=wrap;html=1;fixedSize=1;" vertex="1" parent="1">
          <mxGeometry x="494" y="106.5" width="120" height="60" as="geometry" />
        </mxCell>
        <mxCell id="6RDlK6air4TP1Rz4hNY2-29" value="Output &quot;Subtraction&quot;" style="text;strokeColor=none;fillColor=none;html=1;align=center;verticalAlign=middle;whiteSpace=wrap;rounded=0;fontSize=16;" vertex="1" parent="1">
          <mxGeometry x="520" y="121.5" width="60" height="30" as="geometry" />
        </mxCell>
        <mxCell id="6RDlK6air4TP1Rz4hNY2-30" value="" style="endArrow=classic;html=1;rounded=0;fontSize=12;startSize=8;endSize=8;curved=1;entryX=0;entryY=0.5;entryDx=0;entryDy=0;exitX=0.75;exitY=1;exitDx=0;exitDy=0;" edge="1" parent="1" source="6RDlK6air4TP1Rz4hNY2-7" target="6RDlK6air4TP1Rz4hNY2-25">
          <mxGeometry width="50" height="50" relative="1" as="geometry">
            <mxPoint x="247" y="25" as="sourcePoint" />
            <mxPoint x="348" y="27" as="targetPoint" />
            <Array as="points">
              <mxPoint x="201" y="100" />
              <mxPoint x="233" y="143" />
            </Array>
          </mxGeometry>
        </mxCell>
        <mxCell id="6RDlK6air4TP1Rz4hNY2-31" value="" style="rhombus;whiteSpace=wrap;html=1;" vertex="1" parent="1">
          <mxGeometry x="253" y="155" width="98" height="94" as="geometry" />
        </mxCell>
        <mxCell id="6RDlK6air4TP1Rz4hNY2-32" value="is op=*" style="text;strokeColor=none;fillColor=none;html=1;align=center;verticalAlign=middle;whiteSpace=wrap;rounded=0;fontSize=16;" vertex="1" parent="1">
          <mxGeometry x="272.5" y="190.5" width="53" height="20" as="geometry" />
        </mxCell>
        <mxCell id="6RDlK6air4TP1Rz4hNY2-33" value="" style="endArrow=classic;html=1;rounded=0;fontSize=12;startSize=8;endSize=8;curved=1;" edge="1" parent="1">
          <mxGeometry width="50" height="50" relative="1" as="geometry">
            <mxPoint x="351" y="201" as="sourcePoint" />
            <mxPoint x="427" y="201" as="targetPoint" />
          </mxGeometry>
        </mxCell>
        <mxCell id="6RDlK6air4TP1Rz4hNY2-34" value="" style="shape=parallelogram;perimeter=parallelogramPerimeter;whiteSpace=wrap;html=1;fixedSize=1;" vertex="1" parent="1">
          <mxGeometry x="409.5" y="181.5" width="120" height="60" as="geometry" />
        </mxCell>
        <mxCell id="6RDlK6air4TP1Rz4hNY2-35" value="Output &quot;Subtraction&quot;" style="text;strokeColor=none;fillColor=none;html=1;align=center;verticalAlign=middle;whiteSpace=wrap;rounded=0;fontSize=16;" vertex="1" parent="1">
          <mxGeometry x="435.5" y="196.5" width="60" height="30" as="geometry" />
        </mxCell>
        <mxCell id="6RDlK6air4TP1Rz4hNY2-36" value="" style="endArrow=classic;html=1;rounded=0;fontSize=12;startSize=8;endSize=8;curved=1;exitX=0;exitY=1;exitDx=0;exitDy=0;entryX=0;entryY=0.5;entryDx=0;entryDy=0;" edge="1" parent="1" source="6RDlK6air4TP1Rz4hNY2-7">
          <mxGeometry width="50" height="50" relative="1" as="geometry">
            <mxPoint x="101.5" y="320.5" as="sourcePoint" />
            <mxPoint x="175" y="478" as="targetPoint" />
            <Array as="points">
              <mxPoint x="95" y="461" />
              <mxPoint x="108" y="478" />
            </Array>
          </mxGeometry>
        </mxCell>
        <mxCell id="6RDlK6air4TP1Rz4hNY2-106" value="" style="endArrow=classic;html=1;rounded=0;fontSize=12;startSize=8;endSize=8;curved=1;exitX=0;exitY=1;exitDx=0;exitDy=0;" edge="1" parent="1">
          <mxGeometry width="50" height="50" relative="1" as="geometry">
            <mxPoint x="157.5" y="50" as="sourcePoint" />
            <mxPoint x="244.5" y="430.5" as="targetPoint" />
            <Array as="points">
              <mxPoint x="135.5" y="432.5" />
              <mxPoint x="153" y="423.5" />
            </Array>
          </mxGeometry>
        </mxCell>
        <mxCell id="6RDlK6air4TP1Rz4hNY2-112" value="" style="rhombus;whiteSpace=wrap;html=1;" vertex="1" parent="1">
          <mxGeometry x="233" y="249" width="98" height="94" as="geometry" />
        </mxCell>
        <mxCell id="6RDlK6air4TP1Rz4hNY2-113" value="&amp;nbsp;is op=/" style="text;strokeColor=none;fillColor=none;html=1;align=center;verticalAlign=middle;whiteSpace=wrap;rounded=0;fontSize=16;" vertex="1" parent="1">
          <mxGeometry x="255.5" y="285.5" width="53" height="20" as="geometry" />
        </mxCell>
        <mxCell id="6RDlK6air4TP1Rz4hNY2-114" value="" style="endArrow=classic;html=1;rounded=0;fontSize=12;startSize=8;endSize=8;curved=1;" edge="1" parent="1">
          <mxGeometry width="50" height="50" relative="1" as="geometry">
            <mxPoint x="331" y="295" as="sourcePoint" />
            <mxPoint x="407" y="295" as="targetPoint" />
          </mxGeometry>
        </mxCell>
        <mxCell id="6RDlK6air4TP1Rz4hNY2-115" value="" style="shape=parallelogram;perimeter=parallelogramPerimeter;whiteSpace=wrap;html=1;fixedSize=1;" vertex="1" parent="1">
          <mxGeometry x="389.5" y="275.5" width="120" height="60" as="geometry" />
        </mxCell>
        <mxCell id="6RDlK6air4TP1Rz4hNY2-116" value="Output &quot;Division&quot;" style="text;strokeColor=none;fillColor=none;html=1;align=center;verticalAlign=middle;whiteSpace=wrap;rounded=0;fontSize=16;" vertex="1" parent="1">
          <mxGeometry x="415.5" y="290.5" width="60" height="30" as="geometry" />
        </mxCell>
        <mxCell id="6RDlK6air4TP1Rz4hNY2-117" value="" style="rhombus;whiteSpace=wrap;html=1;" vertex="1" parent="1">
          <mxGeometry x="234" y="365" width="98" height="94" as="geometry" />
        </mxCell>
        <mxCell id="6RDlK6air4TP1Rz4hNY2-118" value="&amp;nbsp;is op=%" style="text;strokeColor=none;fillColor=none;html=1;align=center;verticalAlign=middle;whiteSpace=wrap;rounded=0;fontSize=16;" vertex="1" parent="1">
          <mxGeometry x="261" y="399" width="53" height="20" as="geometry" />
        </mxCell>
        <mxCell id="6RDlK6air4TP1Rz4hNY2-119" value="" style="endArrow=classic;html=1;rounded=0;fontSize=12;startSize=8;endSize=8;curved=1;" edge="1" parent="1">
          <mxGeometry width="50" height="50" relative="1" as="geometry">
            <mxPoint x="332" y="411" as="sourcePoint" />
            <mxPoint x="408" y="411" as="targetPoint" />
          </mxGeometry>
        </mxCell>
        <mxCell id="6RDlK6air4TP1Rz4hNY2-120" value="" style="shape=parallelogram;perimeter=parallelogramPerimeter;whiteSpace=wrap;html=1;fixedSize=1;" vertex="1" parent="1">
          <mxGeometry x="390.5" y="391.5" width="120" height="60" as="geometry" />
        </mxCell>
        <mxCell id="6RDlK6air4TP1Rz4hNY2-121" value="Output &quot;Addition&quot;" style="text;strokeColor=none;fillColor=none;html=1;align=center;verticalAlign=middle;whiteSpace=wrap;rounded=0;fontSize=16;" vertex="1" parent="1">
          <mxGeometry x="416.5" y="406.5" width="60" height="30" as="geometry" />
        </mxCell>
        <mxCell id="6RDlK6air4TP1Rz4hNY2-122" value="" style="endArrow=classic;html=1;rounded=0;fontSize=12;startSize=8;endSize=8;curved=1;exitX=0.153;exitY=1.047;exitDx=0;exitDy=0;exitPerimeter=0;" edge="1" parent="1" source="6RDlK6air4TP1Rz4hNY2-7">
          <mxGeometry width="50" height="50" relative="1" as="geometry">
            <mxPoint x="134" y="98" as="sourcePoint" />
            <mxPoint x="234" y="298" as="targetPoint" />
            <Array as="points">
              <mxPoint x="125" y="300" />
              <mxPoint x="142.5" y="291" />
            </Array>
          </mxGeometry>
        </mxCell>
        <mxCell id="6RDlK6air4TP1Rz4hNY2-123" value="" style="endArrow=classic;html=1;rounded=0;fontSize=12;startSize=8;endSize=8;curved=1;exitX=0.5;exitY=1;exitDx=0;exitDy=0;entryX=0;entryY=0.5;entryDx=0;entryDy=0;" edge="1" parent="1">
          <mxGeometry width="50" height="50" relative="1" as="geometry">
            <mxPoint x="190" y="55" as="sourcePoint" />
            <mxPoint x="263" y="212" as="targetPoint" />
            <Array as="points">
              <mxPoint x="183" y="195" />
              <mxPoint x="196" y="212" />
            </Array>
          </mxGeometry>
        </mxCell>
        <mxCell id="6RDlK6air4TP1Rz4hNY2-124" value="" style="rhombus;whiteSpace=wrap;html=1;" vertex="1" parent="1">
          <mxGeometry x="171" y="436.5" width="98" height="94" as="geometry" />
        </mxCell>
        <mxCell id="6RDlK6air4TP1Rz4hNY2-125" value="is op= &amp;gt;" style="text;strokeColor=none;fillColor=none;html=1;align=center;verticalAlign=middle;whiteSpace=wrap;rounded=0;fontSize=16;" vertex="1" parent="1">
          <mxGeometry x="197" y="472.5" width="53" height="19.5" as="geometry" />
        </mxCell>
        <mxCell id="6RDlK6air4TP1Rz4hNY2-126" value="" style="endArrow=classic;html=1;rounded=0;fontSize=12;startSize=8;endSize=8;curved=1;" edge="1" parent="1">
          <mxGeometry width="50" height="50" relative="1" as="geometry">
            <mxPoint x="269" y="482.5" as="sourcePoint" />
            <mxPoint x="345" y="482.5" as="targetPoint" />
          </mxGeometry>
        </mxCell>
        <mxCell id="6RDlK6air4TP1Rz4hNY2-127" value="" style="shape=parallelogram;perimeter=parallelogramPerimeter;whiteSpace=wrap;html=1;fixedSize=1;" vertex="1" parent="1">
          <mxGeometry x="327.5" y="463" width="120" height="60" as="geometry" />
        </mxCell>
        <mxCell id="6RDlK6air4TP1Rz4hNY2-128" value="Output &quot;Greater Than&quot;" style="text;strokeColor=none;fillColor=none;html=1;align=center;verticalAlign=middle;whiteSpace=wrap;rounded=0;fontSize=16;" vertex="1" parent="1">
          <mxGeometry x="353.5" y="479" width="60" height="30" as="geometry" />
        </mxCell>
        <mxCell id="6RDlK6air4TP1Rz4hNY2-129" value="" style="endArrow=classic;html=1;rounded=0;fontSize=12;startSize=8;endSize=8;curved=1;exitX=0.061;exitY=0.953;exitDx=0;exitDy=0;entryX=0;entryY=0.5;entryDx=0;entryDy=0;exitPerimeter=0;" edge="1" parent="1" source="6RDlK6air4TP1Rz4hNY2-7">
          <mxGeometry width="50" height="50" relative="1" as="geometry">
            <mxPoint x="124" y="121.5" as="sourcePoint" />
            <mxPoint x="185" y="554.5" as="targetPoint" />
            <Array as="points">
              <mxPoint x="105" y="537.5" />
              <mxPoint x="118" y="554.5" />
            </Array>
          </mxGeometry>
        </mxCell>
        <mxCell id="6RDlK6air4TP1Rz4hNY2-144" value="" style="rhombus;whiteSpace=wrap;html=1;" vertex="1" parent="1">
          <mxGeometry x="186" y="529" width="94" height="74" as="geometry" />
        </mxCell>
        <mxCell id="6RDlK6air4TP1Rz4hNY2-146" value="" style="endArrow=classic;html=1;rounded=0;fontSize=12;startSize=8;endSize=8;curved=1;" edge="1" parent="1">
          <mxGeometry width="50" height="50" relative="1" as="geometry">
            <mxPoint x="275" y="566" as="sourcePoint" />
            <mxPoint x="351" y="566" as="targetPoint" />
          </mxGeometry>
        </mxCell>
        <mxCell id="6RDlK6air4TP1Rz4hNY2-147" value="" style="shape=parallelogram;perimeter=parallelogramPerimeter;whiteSpace=wrap;html=1;fixedSize=1;" vertex="1" parent="1">
          <mxGeometry x="342.5" y="535.5" width="120" height="60" as="geometry" />
        </mxCell>
        <mxCell id="6RDlK6air4TP1Rz4hNY2-148" value="Output &quot;Less Than&quot;&quot;" style="text;strokeColor=none;fillColor=none;html=1;align=center;verticalAlign=middle;whiteSpace=wrap;rounded=0;fontSize=16;" vertex="1" parent="1">
          <mxGeometry x="369.5" y="551.5" width="60" height="30" as="geometry" />
        </mxCell>
        <mxCell id="6RDlK6air4TP1Rz4hNY2-149" value="is op=&amp;lt;" style="text;strokeColor=none;fillColor=none;html=1;align=center;verticalAlign=middle;whiteSpace=wrap;rounded=0;fontSize=16;" vertex="1" parent="1">
          <mxGeometry x="203" y="547" width="60" height="30" as="geometry" />
        </mxCell>
        <mxCell id="6RDlK6air4TP1Rz4hNY2-150" value="" style="endArrow=classic;html=1;rounded=0;fontSize=12;startSize=8;endSize=8;curved=1;entryX=0;entryY=0.5;entryDx=0;entryDy=0;" edge="1" parent="1">
          <mxGeometry width="50" height="50" relative="1" as="geometry">
            <mxPoint x="110" y="47" as="sourcePoint" />
            <mxPoint x="171" y="643.5" as="targetPoint" />
            <Array as="points">
              <mxPoint x="91" y="626.5" />
              <mxPoint x="104" y="643.5" />
            </Array>
          </mxGeometry>
        </mxCell>
        <mxCell id="6RDlK6air4TP1Rz4hNY2-152" value="is op= &amp;gt;" style="text;strokeColor=none;fillColor=none;html=1;align=center;verticalAlign=middle;whiteSpace=wrap;rounded=0;fontSize=16;" vertex="1" parent="1">
          <mxGeometry x="186" y="654.25" width="53" height="19.5" as="geometry" />
        </mxCell>
        <mxCell id="6RDlK6air4TP1Rz4hNY2-153" value="" style="endArrow=classic;html=1;rounded=0;fontSize=12;startSize=8;endSize=8;curved=1;" edge="1" parent="1">
          <mxGeometry width="50" height="50" relative="1" as="geometry">
            <mxPoint x="265" y="652.5" as="sourcePoint" />
            <mxPoint x="341" y="652.5" as="targetPoint" />
          </mxGeometry>
        </mxCell>
        <mxCell id="6RDlK6air4TP1Rz4hNY2-154" value="" style="shape=parallelogram;perimeter=parallelogramPerimeter;whiteSpace=wrap;html=1;fixedSize=1;" vertex="1" parent="1">
          <mxGeometry x="323.5" y="633" width="120" height="60" as="geometry" />
        </mxCell>
        <mxCell id="6RDlK6air4TP1Rz4hNY2-155" value="Output &quot;Not&quot;" style="text;strokeColor=none;fillColor=none;html=1;align=center;verticalAlign=middle;whiteSpace=wrap;rounded=0;fontSize=16;" vertex="1" parent="1">
          <mxGeometry x="349.5" y="650" width="60" height="30" as="geometry" />
        </mxCell>
        <mxCell id="6RDlK6air4TP1Rz4hNY2-156" value="" style="rhombus;whiteSpace=wrap;html=1;" vertex="1" parent="1">
          <mxGeometry x="180" y="616" width="80" height="80" as="geometry" />
        </mxCell>
        <mxCell id="6RDlK6air4TP1Rz4hNY2-157" value="Is op=!" style="text;strokeColor=none;fillColor=none;html=1;align=center;verticalAlign=middle;whiteSpace=wrap;rounded=0;fontSize=16;" vertex="1" parent="1">
          <mxGeometry x="193" y="641" width="60" height="30" as="geometry" />
        </mxCell>
        <mxCell id="6RDlK6air4TP1Rz4hNY2-159" value="" style="endArrow=classic;html=1;rounded=0;fontSize=12;startSize=8;endSize=8;curved=1;entryX=0;entryY=0.5;entryDx=0;entryDy=0;exitX=0.053;exitY=0.967;exitDx=0;exitDy=0;exitPerimeter=0;" edge="1" parent="1" source="6RDlK6air4TP1Rz4hNY2-7">
          <mxGeometry width="50" height="50" relative="1" as="geometry">
            <mxPoint x="94" y="-2" as="sourcePoint" />
            <mxPoint x="161" y="732" as="targetPoint" />
            <Array as="points">
              <mxPoint x="81" y="715" />
              <mxPoint x="94" y="732" />
            </Array>
          </mxGeometry>
        </mxCell>
        <mxCell id="6RDlK6air4TP1Rz4hNY2-170" value="" style="shape=parallelogram;perimeter=parallelogramPerimeter;whiteSpace=wrap;html=1;fixedSize=1;" vertex="1" parent="1">
          <mxGeometry x="152.5" y="707" width="120" height="60" as="geometry" />
        </mxCell>
        <mxCell id="6RDlK6air4TP1Rz4hNY2-171" value="&lt;div&gt;Output&amp;nbsp;&lt;/div&gt;&lt;div&gt;Unknown&lt;/div&gt;" style="text;strokeColor=none;fillColor=none;html=1;align=center;verticalAlign=middle;whiteSpace=wrap;rounded=0;fontSize=16;" vertex="1" parent="1">
          <mxGeometry x="113.5" y="722" width="195" height="30" as="geometry" />
        </mxCell>
        <mxCell id="6RDlK6air4TP1Rz4hNY2-173" value="" style="endArrow=classic;html=1;rounded=0;fontSize=12;startSize=8;endSize=8;curved=1;exitX=1;exitY=0.5;exitDx=0;exitDy=0;" edge="1" parent="1">
          <mxGeometry width="50" height="50" relative="1" as="geometry">
            <mxPoint x="604" y="141" as="sourcePoint" />
            <mxPoint x="590" y="732" as="targetPoint" />
          </mxGeometry>
        </mxCell>
        <mxCell id="6RDlK6air4TP1Rz4hNY2-174" value="" style="endArrow=classic;html=1;rounded=0;fontSize=12;startSize=8;endSize=8;curved=1;exitX=1;exitY=0.5;exitDx=0;exitDy=0;" edge="1" parent="1">
          <mxGeometry width="50" height="50" relative="1" as="geometry">
            <mxPoint x="523.5" y="203" as="sourcePoint" />
            <mxPoint x="578" y="733" as="targetPoint" />
            <Array as="points">
              <mxPoint x="603" y="224" />
            </Array>
          </mxGeometry>
        </mxCell>
        <mxCell id="6RDlK6air4TP1Rz4hNY2-175" value="" style="endArrow=classic;html=1;rounded=0;fontSize=12;startSize=8;endSize=8;curved=1;exitX=1;exitY=0.25;exitDx=0;exitDy=0;" edge="1" parent="1" source="6RDlK6air4TP1Rz4hNY2-19">
          <mxGeometry width="50" height="50" relative="1" as="geometry">
            <mxPoint x="614" y="151" as="sourcePoint" />
            <mxPoint x="604" y="725" as="targetPoint" />
            <Array as="points">
              <mxPoint x="659" y="263" />
            </Array>
          </mxGeometry>
        </mxCell>
        <mxCell id="6RDlK6air4TP1Rz4hNY2-176" value="" style="endArrow=classic;html=1;rounded=0;fontSize=12;startSize=8;endSize=8;curved=1;exitX=0.954;exitY=0.408;exitDx=0;exitDy=0;exitPerimeter=0;" edge="1" parent="1" source="6RDlK6air4TP1Rz4hNY2-115">
          <mxGeometry width="50" height="50" relative="1" as="geometry">
            <mxPoint x="439" y="582" as="sourcePoint" />
            <mxPoint x="554" y="725" as="targetPoint" />
            <Array as="points">
              <mxPoint x="595" y="293" />
            </Array>
          </mxGeometry>
        </mxCell>
        <mxCell id="6RDlK6air4TP1Rz4hNY2-177" value="" style="ellipse;whiteSpace=wrap;html=1;" vertex="1" parent="1">
          <mxGeometry x="520" y="734" width="120" height="80" as="geometry" />
        </mxCell>
        <mxCell id="6RDlK6air4TP1Rz4hNY2-178" value="Stop" style="text;strokeColor=none;fillColor=none;html=1;align=center;verticalAlign=middle;whiteSpace=wrap;rounded=0;fontSize=16;" vertex="1" parent="1">
          <mxGeometry x="545" y="762" width="60" height="30" as="geometry" />
        </mxCell>
        <mxCell id="6RDlK6air4TP1Rz4hNY2-179" value="" style="endArrow=classic;html=1;rounded=0;fontSize=12;startSize=8;endSize=8;curved=1;exitX=1;exitY=0.5;exitDx=0;exitDy=0;entryX=0;entryY=0;entryDx=0;entryDy=0;" edge="1" parent="1" source="6RDlK6air4TP1Rz4hNY2-120" target="6RDlK6air4TP1Rz4hNY2-177">
          <mxGeometry width="50" height="50" relative="1" as="geometry">
            <mxPoint x="439" y="582" as="sourcePoint" />
            <mxPoint x="489" y="532" as="targetPoint" />
            <Array as="points">
              <mxPoint x="571" y="536" />
            </Array>
          </mxGeometry>
        </mxCell>
        <mxCell id="6RDlK6air4TP1Rz4hNY2-180" value="" style="endArrow=classic;html=1;rounded=0;fontSize=12;startSize=8;endSize=8;curved=1;exitX=1;exitY=0.5;exitDx=0;exitDy=0;entryX=0.075;entryY=0.238;entryDx=0;entryDy=0;entryPerimeter=0;" edge="1" parent="1" source="6RDlK6air4TP1Rz4hNY2-127" target="6RDlK6air4TP1Rz4hNY2-177">
          <mxGeometry width="50" height="50" relative="1" as="geometry">
            <mxPoint x="439" y="582" as="sourcePoint" />
            <mxPoint x="489" y="532" as="targetPoint" />
            <Array as="points">
              <mxPoint x="544" y="466" />
            </Array>
          </mxGeometry>
        </mxCell>
        <mxCell id="6RDlK6air4TP1Rz4hNY2-181" value="" style="endArrow=classic;html=1;rounded=0;fontSize=12;startSize=8;endSize=8;curved=1;exitX=1;exitY=0.75;exitDx=0;exitDy=0;" edge="1" parent="1" source="6RDlK6air4TP1Rz4hNY2-147" target="6RDlK6air4TP1Rz4hNY2-177">
          <mxGeometry width="50" height="50" relative="1" as="geometry">
            <mxPoint x="439" y="582" as="sourcePoint" />
            <mxPoint x="489" y="532" as="targetPoint" />
            <Array as="points">
              <mxPoint x="556" y="554" />
            </Array>
          </mxGeometry>
        </mxCell>
        <mxCell id="6RDlK6air4TP1Rz4hNY2-184" value="" style="endArrow=classic;html=1;rounded=0;fontSize=12;startSize=8;endSize=8;curved=1;entryX=0.033;entryY=0.363;entryDx=0;entryDy=0;entryPerimeter=0;" edge="1" parent="1" source="6RDlK6air4TP1Rz4hNY2-154" target="6RDlK6air4TP1Rz4hNY2-177">
          <mxGeometry width="50" height="50" relative="1" as="geometry">
            <mxPoint x="439" y="582" as="sourcePoint" />
            <mxPoint x="489" y="532" as="targetPoint" />
          </mxGeometry>
        </mxCell>
        <mxCell id="6RDlK6air4TP1Rz4hNY2-185" value="" style="endArrow=classic;html=1;rounded=0;fontSize=12;startSize=8;endSize=8;curved=1;entryX=0;entryY=0.5;entryDx=0;entryDy=0;" edge="1" parent="1" target="6RDlK6air4TP1Rz4hNY2-177">
          <mxGeometry width="50" height="50" relative="1" as="geometry">
            <mxPoint x="261" y="743" as="sourcePoint" />
            <mxPoint x="311" y="693" as="targetPoint" />
          </mxGeometry>
        </mxCell>
      </root>
    </mxGraphModel>
  </diagram>
</mxfile>
